<mxfile host="app.diagrams.net" agent="Mozilla/5.0 (Macintosh; Intel Mac OS X 10.15; rv:134.0) Gecko/20100101 Firefox/134.0" version="26.0.8">
  <diagram name="Page-1" id="NgzeXLo5H5cjdFz9VzWc">
    <mxGraphModel dx="1243" dy="726" grid="1" gridSize="10" guides="1" tooltips="1" connect="1" arrows="1" fold="1" page="1" pageScale="1" pageWidth="1169" pageHeight="827" math="0" shadow="0">
      <root>
        <mxCell id="0" />
        <mxCell id="1" parent="0" />
        <mxCell id="bt4Wik9f4Y8JRv7qPIcA-3" value="AWS Cloud" style="points=[[0,0],[0.25,0],[0.5,0],[0.75,0],[1,0],[1,0.25],[1,0.5],[1,0.75],[1,1],[0.75,1],[0.5,1],[0.25,1],[0,1],[0,0.75],[0,0.5],[0,0.25]];outlineConnect=0;gradientColor=none;html=1;whiteSpace=wrap;fontSize=12;fontStyle=0;container=1;pointerEvents=0;collapsible=0;recursiveResize=0;shape=mxgraph.aws4.group;grIcon=mxgraph.aws4.group_aws_cloud_alt;strokeColor=#232F3E;fillColor=none;verticalAlign=top;align=left;spacingLeft=30;fontColor=#232F3E;dashed=0;" vertex="1" parent="1">
          <mxGeometry x="40" y="160" width="1080" height="640" as="geometry" />
        </mxCell>
        <mxCell id="bt4Wik9f4Y8JRv7qPIcA-6" value="ap-southeast-2" style="points=[[0,0],[0.25,0],[0.5,0],[0.75,0],[1,0],[1,0.25],[1,0.5],[1,0.75],[1,1],[0.75,1],[0.5,1],[0.25,1],[0,1],[0,0.75],[0,0.5],[0,0.25]];outlineConnect=0;gradientColor=none;html=1;whiteSpace=wrap;fontSize=12;fontStyle=0;container=1;pointerEvents=0;collapsible=0;recursiveResize=0;shape=mxgraph.aws4.group;grIcon=mxgraph.aws4.group_region;strokeColor=#00A4A6;fillColor=none;verticalAlign=top;align=left;spacingLeft=30;fontColor=#147EBA;dashed=1;" vertex="1" parent="bt4Wik9f4Y8JRv7qPIcA-3">
          <mxGeometry x="40" y="40" width="1000" height="560" as="geometry" />
        </mxCell>
        <mxCell id="bt4Wik9f4Y8JRv7qPIcA-21" value="Private subnet" style="points=[[0,0],[0.25,0],[0.5,0],[0.75,0],[1,0],[1,0.25],[1,0.5],[1,0.75],[1,1],[0.75,1],[0.5,1],[0.25,1],[0,1],[0,0.75],[0,0.5],[0,0.25]];outlineConnect=0;gradientColor=none;html=1;whiteSpace=wrap;fontSize=12;fontStyle=0;container=1;pointerEvents=0;collapsible=0;recursiveResize=0;shape=mxgraph.aws4.group;grIcon=mxgraph.aws4.group_security_group;grStroke=0;strokeColor=#00A4A6;fillColor=#E6F6F7;verticalAlign=top;align=left;spacingLeft=30;fontColor=#147EBA;dashed=0;" vertex="1" parent="bt4Wik9f4Y8JRv7qPIcA-6">
          <mxGeometry x="50" y="220" width="890" height="200" as="geometry" />
        </mxCell>
        <mxCell id="bt4Wik9f4Y8JRv7qPIcA-7" value="ap-southeast-2a" style="fillColor=none;strokeColor=#147EBA;dashed=1;verticalAlign=top;fontStyle=0;fontColor=#147EBA;whiteSpace=wrap;html=1;" vertex="1" parent="bt4Wik9f4Y8JRv7qPIcA-6">
          <mxGeometry x="35" y="40" width="280" height="396" as="geometry" />
        </mxCell>
        <mxCell id="bt4Wik9f4Y8JRv7qPIcA-8" value="ap-southeast-2b" style="fillColor=none;strokeColor=#147EBA;dashed=1;verticalAlign=top;fontStyle=0;fontColor=#147EBA;whiteSpace=wrap;html=1;" vertex="1" parent="bt4Wik9f4Y8JRv7qPIcA-6">
          <mxGeometry x="355" y="40" width="280" height="396" as="geometry" />
        </mxCell>
        <mxCell id="bt4Wik9f4Y8JRv7qPIcA-9" value="ap-southeast-2c" style="fillColor=none;strokeColor=#147EBA;dashed=1;verticalAlign=top;fontStyle=0;fontColor=#147EBA;whiteSpace=wrap;html=1;" vertex="1" parent="bt4Wik9f4Y8JRv7qPIcA-6">
          <mxGeometry x="675" y="40" width="280" height="396" as="geometry" />
        </mxCell>
        <mxCell id="bt4Wik9f4Y8JRv7qPIcA-22" value="Public subnet" style="points=[[0,0],[0.25,0],[0.5,0],[0.75,0],[1,0],[1,0.25],[1,0.5],[1,0.75],[1,1],[0.75,1],[0.5,1],[0.25,1],[0,1],[0,0.75],[0,0.5],[0,0.25]];outlineConnect=0;gradientColor=none;html=1;whiteSpace=wrap;fontSize=12;fontStyle=0;container=1;pointerEvents=0;collapsible=0;recursiveResize=0;shape=mxgraph.aws4.group;grIcon=mxgraph.aws4.group_security_group;grStroke=0;strokeColor=#7AA116;fillColor=#F2F6E8;verticalAlign=top;align=left;spacingLeft=30;fontColor=#248814;dashed=0;" vertex="1" parent="bt4Wik9f4Y8JRv7qPIcA-6">
          <mxGeometry x="50" y="110" width="890" height="100" as="geometry" />
        </mxCell>
        <mxCell id="bt4Wik9f4Y8JRv7qPIcA-17" value="Application Load Balancer" style="sketch=0;outlineConnect=0;fontColor=#232F3E;gradientColor=none;fillColor=#8C4FFF;strokeColor=none;dashed=0;verticalLabelPosition=bottom;verticalAlign=top;align=center;html=1;fontSize=12;fontStyle=0;aspect=fixed;pointerEvents=1;shape=mxgraph.aws4.application_load_balancer;" vertex="1" parent="bt4Wik9f4Y8JRv7qPIcA-22">
          <mxGeometry x="406" y="16" width="78" height="78" as="geometry" />
        </mxCell>
        <mxCell id="bt4Wik9f4Y8JRv7qPIcA-10" value="Competitors Auto Scaling Group" style="points=[[0,0],[0.25,0],[0.5,0],[0.75,0],[1,0],[1,0.25],[1,0.5],[1,0.75],[1,1],[0.75,1],[0.5,1],[0.25,1],[0,1],[0,0.75],[0,0.5],[0,0.25]];outlineConnect=0;gradientColor=none;html=1;whiteSpace=wrap;fontSize=12;fontStyle=0;container=1;pointerEvents=0;collapsible=0;recursiveResize=0;shape=mxgraph.aws4.groupCenter;grIcon=mxgraph.aws4.group_auto_scaling_group;grStroke=1;strokeColor=#D86613;fillColor=none;verticalAlign=top;align=center;fontColor=#D86613;dashed=1;spacingTop=25;" vertex="1" parent="bt4Wik9f4Y8JRv7qPIcA-6">
          <mxGeometry x="75" y="260" width="840" height="136" as="geometry" />
        </mxCell>
        <mxCell id="bt4Wik9f4Y8JRv7qPIcA-13" value="Rails App" style="sketch=0;outlineConnect=0;fontColor=#232F3E;gradientColor=none;fillColor=#ED7100;strokeColor=none;dashed=0;verticalLabelPosition=middle;verticalAlign=middle;align=left;html=1;fontSize=12;fontStyle=0;aspect=fixed;pointerEvents=1;shape=mxgraph.aws4.instance2;labelPosition=right;" vertex="1" parent="bt4Wik9f4Y8JRv7qPIcA-10">
          <mxGeometry x="401" y="60" width="48" height="48" as="geometry" />
        </mxCell>
        <mxCell id="bt4Wik9f4Y8JRv7qPIcA-16" value="DynamoDb" style="sketch=0;points=[[0,0,0],[0.25,0,0],[0.5,0,0],[0.75,0,0],[1,0,0],[0,1,0],[0.25,1,0],[0.5,1,0],[0.75,1,0],[1,1,0],[0,0.25,0],[0,0.5,0],[0,0.75,0],[1,0.25,0],[1,0.5,0],[1,0.75,0]];outlineConnect=0;fontColor=#232F3E;fillColor=#C925D1;strokeColor=#ffffff;dashed=0;verticalLabelPosition=bottom;verticalAlign=top;align=center;html=1;fontSize=12;fontStyle=0;aspect=fixed;shape=mxgraph.aws4.resourceIcon;resIcon=mxgraph.aws4.dynamodb;" vertex="1" parent="bt4Wik9f4Y8JRv7qPIcA-6">
          <mxGeometry x="461" y="450" width="78" height="78" as="geometry" />
        </mxCell>
        <mxCell id="bt4Wik9f4Y8JRv7qPIcA-23" value="" style="edgeStyle=orthogonalEdgeStyle;html=1;endArrow=block;elbow=vertical;startArrow=none;endFill=1;strokeColor=#545B64;rounded=0;" edge="1" parent="bt4Wik9f4Y8JRv7qPIcA-6" source="bt4Wik9f4Y8JRv7qPIcA-12" target="bt4Wik9f4Y8JRv7qPIcA-16">
          <mxGeometry width="100" relative="1" as="geometry">
            <mxPoint x="168.99999999999977" y="396" as="sourcePoint" />
            <mxPoint x="461" y="506.9999999999998" as="targetPoint" />
            <Array as="points">
              <mxPoint x="169" y="490" />
            </Array>
          </mxGeometry>
        </mxCell>
        <mxCell id="bt4Wik9f4Y8JRv7qPIcA-24" value="" style="edgeStyle=orthogonalEdgeStyle;html=1;endArrow=block;elbow=vertical;startArrow=none;endFill=1;strokeColor=#545B64;rounded=0;" edge="1" parent="bt4Wik9f4Y8JRv7qPIcA-6" source="bt4Wik9f4Y8JRv7qPIcA-13" target="bt4Wik9f4Y8JRv7qPIcA-16">
          <mxGeometry width="100" relative="1" as="geometry">
            <mxPoint x="470" y="240" as="sourcePoint" />
            <mxPoint x="570" y="240" as="targetPoint" />
          </mxGeometry>
        </mxCell>
        <mxCell id="bt4Wik9f4Y8JRv7qPIcA-26" value="" style="edgeStyle=orthogonalEdgeStyle;html=1;endArrow=block;elbow=vertical;startArrow=none;endFill=1;strokeColor=#545B64;rounded=0;" edge="1" parent="bt4Wik9f4Y8JRv7qPIcA-6" source="bt4Wik9f4Y8JRv7qPIcA-14" target="bt4Wik9f4Y8JRv7qPIcA-16">
          <mxGeometry width="100" relative="1" as="geometry">
            <mxPoint x="179" y="394" as="sourcePoint" />
            <mxPoint x="660" y="500" as="targetPoint" />
            <Array as="points">
              <mxPoint x="824" y="490" />
            </Array>
          </mxGeometry>
        </mxCell>
        <mxCell id="bt4Wik9f4Y8JRv7qPIcA-27" value="" style="edgeStyle=orthogonalEdgeStyle;html=1;endArrow=none;elbow=vertical;startArrow=block;startFill=1;strokeColor=#545B64;rounded=0;" edge="1" parent="bt4Wik9f4Y8JRv7qPIcA-6" source="bt4Wik9f4Y8JRv7qPIcA-12" target="bt4Wik9f4Y8JRv7qPIcA-17">
          <mxGeometry width="100" relative="1" as="geometry">
            <mxPoint x="460" y="250" as="sourcePoint" />
            <mxPoint x="560" y="250" as="targetPoint" />
            <Array as="points">
              <mxPoint x="170" y="165" />
            </Array>
          </mxGeometry>
        </mxCell>
        <mxCell id="bt4Wik9f4Y8JRv7qPIcA-28" value="" style="edgeStyle=orthogonalEdgeStyle;html=1;endArrow=none;elbow=vertical;startArrow=block;startFill=1;strokeColor=#545B64;rounded=0;" edge="1" parent="bt4Wik9f4Y8JRv7qPIcA-6" source="bt4Wik9f4Y8JRv7qPIcA-13" target="bt4Wik9f4Y8JRv7qPIcA-17">
          <mxGeometry width="100" relative="1" as="geometry">
            <mxPoint x="180" y="346" as="sourcePoint" />
            <mxPoint x="466" y="175" as="targetPoint" />
            <Array as="points">
              <mxPoint x="380" y="344" />
              <mxPoint x="380" y="165" />
            </Array>
          </mxGeometry>
        </mxCell>
        <mxCell id="bt4Wik9f4Y8JRv7qPIcA-29" value="" style="edgeStyle=orthogonalEdgeStyle;html=1;endArrow=none;elbow=vertical;startArrow=block;startFill=1;strokeColor=#545B64;rounded=0;" edge="1" parent="bt4Wik9f4Y8JRv7qPIcA-6" source="bt4Wik9f4Y8JRv7qPIcA-14" target="bt4Wik9f4Y8JRv7qPIcA-17">
          <mxGeometry width="100" relative="1" as="geometry">
            <mxPoint x="180" y="346" as="sourcePoint" />
            <mxPoint x="466" y="175" as="targetPoint" />
            <Array as="points">
              <mxPoint x="824" y="165" />
            </Array>
          </mxGeometry>
        </mxCell>
        <mxCell id="bt4Wik9f4Y8JRv7qPIcA-14" value="Rails App" style="sketch=0;outlineConnect=0;fontColor=#232F3E;gradientColor=none;fillColor=#ED7100;strokeColor=none;dashed=0;verticalLabelPosition=middle;verticalAlign=middle;align=left;html=1;fontSize=12;fontStyle=0;aspect=fixed;pointerEvents=1;shape=mxgraph.aws4.instance2;labelPosition=right;" vertex="1" parent="bt4Wik9f4Y8JRv7qPIcA-6">
          <mxGeometry x="800" y="320" width="48" height="48" as="geometry" />
        </mxCell>
        <mxCell id="bt4Wik9f4Y8JRv7qPIcA-12" value="Rails App" style="sketch=0;outlineConnect=0;fontColor=#232F3E;gradientColor=none;fillColor=#ED7100;strokeColor=none;dashed=0;verticalLabelPosition=middle;verticalAlign=middle;align=left;html=1;fontSize=12;fontStyle=0;aspect=fixed;pointerEvents=1;shape=mxgraph.aws4.instance2;labelPosition=right;" vertex="1" parent="bt4Wik9f4Y8JRv7qPIcA-6">
          <mxGeometry x="145" y="320" width="48" height="48" as="geometry" />
        </mxCell>
        <mxCell id="bt4Wik9f4Y8JRv7qPIcA-18" value="Spectators" style="fillColor=none;strokeColor=#5A6C86;dashed=1;verticalAlign=top;fontStyle=0;fontColor=#5A6C86;whiteSpace=wrap;html=1;" vertex="1" parent="1">
          <mxGeometry x="40" y="10" width="1080" height="130" as="geometry" />
        </mxCell>
        <mxCell id="bt4Wik9f4Y8JRv7qPIcA-19" value="" style="sketch=0;outlineConnect=0;fontColor=#232F3E;gradientColor=none;fillColor=#232F3D;strokeColor=none;dashed=0;verticalLabelPosition=bottom;verticalAlign=top;align=center;html=1;fontSize=12;fontStyle=0;aspect=fixed;pointerEvents=1;shape=mxgraph.aws4.user;" vertex="1" parent="1">
          <mxGeometry x="480" y="70" width="58" height="58" as="geometry" />
        </mxCell>
        <mxCell id="bt4Wik9f4Y8JRv7qPIcA-20" value="" style="sketch=0;outlineConnect=0;fontColor=#232F3E;gradientColor=none;fillColor=#232F3D;strokeColor=none;dashed=0;verticalLabelPosition=bottom;verticalAlign=top;align=center;html=1;fontSize=12;fontStyle=0;aspect=fixed;pointerEvents=1;shape=mxgraph.aws4.mobile_client;" vertex="1" parent="1">
          <mxGeometry x="560" y="69.98" width="30.5" height="58.02" as="geometry" />
        </mxCell>
        <mxCell id="bt4Wik9f4Y8JRv7qPIcA-30" value="" style="edgeStyle=orthogonalEdgeStyle;html=1;endArrow=none;elbow=vertical;startArrow=block;startFill=1;strokeColor=#545B64;rounded=0;" edge="1" parent="1" source="bt4Wik9f4Y8JRv7qPIcA-17" target="bt4Wik9f4Y8JRv7qPIcA-20">
          <mxGeometry width="100" relative="1" as="geometry">
            <mxPoint x="540" y="330" as="sourcePoint" />
            <mxPoint x="640" y="330" as="targetPoint" />
            <Array as="points">
              <mxPoint x="575" y="280" />
              <mxPoint x="670" y="280" />
              <mxPoint x="670" y="89" />
            </Array>
          </mxGeometry>
        </mxCell>
      </root>
    </mxGraphModel>
  </diagram>
</mxfile>
